# xmcd
#
# Track frame offsets: 
#        150
#        13718
#        26323
#        38732
#        52747
#        63288
#        74666
#        87865
#        101066
#        114199
#        125894
#        140066
#        149916
#        162387
#        174346
#
# Disc length: 2477 seconds
#
# Revision: 0
# Processed by: cddbd v1.5.2PL0 Copyright (c) Steve Scherf et al.
# Submitted via: ExactAudioCopy v0.99pb5
#
DISCID=d409ab0f
DTITLE=Various Artist - Tango An Anthology
DYEAR=2011
DGENRE=Tango
TTITLE0=Orquestra Tipica Victor - Veijo rincón
TTITLE1=Qrquestra Tipica Victor - Dios Momo
TTITLE2=Orquestra Tipica Victor - Cardos
TTITLE3=Orquestra Tipica Victor - Tierrita
TTITLE4=Orquestra Tipica Victor - CTV
TTITLE5=Orquestra Tipica Victor - El pibe
TTITLE6=Sexteto Cayetano Puglisi - Criolla linda
TTITLE7=Sexteto Cayetano Puglisi - Rezongona
TTITLE8=Sexteto Cayetano Puglisi - Arrabal
TTITLE9=Trio Ciriaco Ortiz - Amor y celos
TTITLE10=Trio Ciriaco Ortiz - El aeroplano
TTITLE11=Trio Ciriaco Ortiz - Perdoname
TTITLE12=Juan Guido y su orquestra - Uruguaya
TTITLE13=Juan Guido y su orquestra - No llores más
TTITLE14=Juan Guido y su orquestra - Orillas del Plata
EXTD=
EXTT0=
EXTT1=
EXTT2=
EXTT3=
EXTT4=
EXTT5=
EXTT6=
EXTT7=
EXTT8=
EXTT9=
EXTT10=
EXTT11=
EXTT12=
EXTT13=
EXTT14=
PLAYORDER=
